<svg version="1.1" id="Layer_1" xmlns="http://www.w3.org/2000/svg" xmlns:xlink="http://www.w3.org/1999/xlink" x="0px" y="0px"
	 width="100%" viewBox="0 0 1024 1024" enable-background="new 0 0 1024 1024" xml:space="preserve">
<path fill="#FFFFFF" opacity="1.000000" stroke="none" 
	d="
M545.000000,1025.000000 
	C363.333344,1025.000000 182.166672,1025.000000 1.000000,1025.000000 
	C1.000000,683.666687 1.000000,342.333344 1.000000,1.000000 
	C342.333344,1.000000 683.666687,1.000000 1025.000000,1.000000 
	C1025.000000,342.333344 1025.000000,683.666687 1025.000000,1025.000000 
	C865.166687,1025.000000 705.333313,1025.000000 545.000000,1025.000000 
M293.428528,580.417114 
	C293.428528,580.417114 293.523376,580.394226 293.887024,580.290710 
	C294.119629,580.163208 294.279022,579.973999 294.611969,579.589539 
	C294.611969,579.589539 294.745087,579.342529 295.044952,579.209534 
	C295.232147,579.074219 295.347046,578.893066 295.557861,578.540527 
	C295.557861,578.540527 295.676208,578.367126 296.030792,578.175415 
	C296.249939,577.994141 296.374695,577.762146 296.413971,577.390015 
	C296.413971,577.390015 296.503174,577.379517 296.928284,577.131897 
	C297.165771,576.882324 297.291351,576.585449 297.061401,576.071838 
	C297.061401,576.071838 297.277496,576.275208 297.859711,575.931702 
	C299.455627,570.454590 302.335022,564.999756 302.430908,559.496521 
	C302.911865,531.896851 302.668518,504.284485 302.657623,476.676575 
	C302.657196,475.630463 302.429901,474.584412 302.229279,472.857788 
	C301.122009,473.868134 300.546814,474.393005 299.302246,475.100983 
	C274.734924,491.767670 250.190414,508.468262 225.570572,525.057007 
	C222.592957,527.063293 219.208603,528.465942 215.131149,530.075806 
	C212.092728,530.400635 209.054306,530.725464 205.217087,530.930786 
	C204.143707,530.978088 203.070328,531.025452 201.228058,530.889771 
	C197.828308,530.243896 194.428543,529.598022 191.010147,529.005432 
	C191.010147,529.005432 191.050629,528.965637 190.716385,528.435486 
	C189.831161,527.908813 188.945923,527.382080 187.824783,526.418579 
	C187.383789,526.209778 186.942795,526.000916 186.133438,525.243774 
	C185.187027,524.704407 184.240601,524.165039 183.043228,523.964722 
	C183.043228,523.964722 183.316605,523.643372 182.961548,523.113464 
	C181.670410,522.366089 180.379272,521.618652 179.035645,520.986267 
	C179.035645,520.986267 179.125885,520.897766 178.779907,520.339966 
	C177.295502,519.430664 175.811111,518.521362 174.004272,518.000000 
	C174.112289,517.870544 174.220291,517.741150 173.986847,517.098022 
	C173.093292,516.605713 172.199738,516.113342 171.026016,515.979126 
	C171.026016,515.979126 171.322906,515.634705 171.017090,515.134094 
	C170.342850,514.765076 169.668594,514.396118 168.840012,513.792542 
	C168.840012,513.792542 168.560532,513.765503 168.191879,513.217041 
	C167.254623,512.666992 166.317352,512.116882 165.032043,511.857819 
	C165.032043,511.857819 165.356216,511.540375 164.997040,511.051758 
	C164.120453,510.561829 163.243866,510.071899 161.983383,509.927521 
	C162.107239,509.807556 162.231110,509.687622 162.037552,509.075409 
	C161.357315,508.719025 160.677063,508.362640 159.854202,507.776611 
	C159.854202,507.776611 159.585297,507.748718 159.215424,507.199249 
	C158.270081,506.655487 157.324738,506.111694 156.031448,505.852325 
	C156.031448,505.852325 156.355499,505.540894 155.991486,505.055511 
	C155.114288,504.566559 154.237091,504.077637 152.984360,503.915314 
	C152.984360,503.915314 153.345947,503.572479 153.006470,503.066467 
	C152.128342,502.570465 151.250229,502.074463 150.017441,501.893768 
	C150.017441,501.893768 150.351501,501.556580 149.998474,501.061829 
	C149.123489,500.566742 148.248520,500.071655 147.034943,499.899750 
	C147.034943,499.899750 147.350769,499.554230 146.994202,499.068420 
	C146.130478,498.567352 145.266754,498.066284 144.171402,497.751099 
	C144.171402,497.751099 144.360413,497.521973 143.995300,497.046967 
	C143.136429,496.549957 142.277542,496.052979 141.241699,495.673859 
	C141.241699,495.673859 141.367279,495.502258 140.999054,495.029144 
	C140.136337,494.538391 139.273605,494.047668 138.141373,493.774902 
	C138.141373,493.774902 138.373291,493.517273 138.033630,493.045807 
	C137.363327,492.684448 136.693008,492.323059 136.008286,492.005157 
	C136.008286,492.005157 136.041199,491.972137 135.682327,491.447540 
	C134.594543,490.814941 133.506760,490.182312 132.228333,489.683624 
	C132.228333,489.683624 132.369370,489.498169 131.995987,489.025452 
	C131.121994,488.543671 130.248001,488.061920 129.030914,487.877594 
	C129.030914,487.877594 129.350952,487.555450 129.010773,487.056610 
	C128.143173,486.557831 127.275574,486.059021 126.147224,485.777771 
	C126.147224,485.777771 126.369225,485.520782 126.023918,485.052612 
	C125.348801,484.698975 124.673683,484.345306 123.858879,483.768005 
	C123.858879,483.768005 123.596382,483.742798 123.237915,483.203339 
	C122.491234,482.802368 121.744553,482.401398 120.850548,481.774170 
	C120.850548,481.774170 120.581551,481.751068 120.217590,481.204437 
	C119.291084,480.647583 118.364571,480.090759 117.304268,479.611450 
	C117.304268,479.611450 117.376221,479.474579 117.012871,479.019653 
	C116.190483,478.514374 115.368103,478.009125 114.437157,477.491364 
	C114.437157,477.491364 114.388840,477.393372 113.924118,476.903503 
	C112.207466,475.809601 110.490807,474.715698 108.135269,473.214661 
	C108.135269,503.971710 107.973869,533.679871 108.325844,563.382019 
	C108.373421,567.397461 110.999306,571.382385 112.526001,575.423340 
	C112.526001,575.423340 112.540810,575.525757 112.787529,576.128967 
	C114.502777,577.804993 116.218018,579.481018 118.153885,581.588440 
	C118.579277,581.805054 119.004669,582.021606 119.863686,582.813416 
	C124.908966,584.191772 129.926788,586.627014 135.004456,586.758911 
	C153.451721,587.237915 171.919006,586.945618 190.378754,586.944153 
	C192.133514,586.944031 193.888275,586.944153 196.432968,586.944153 
	C195.901932,580.802734 195.435333,575.406616 194.965302,569.290833 
	C193.097672,562.835632 187.473312,559.894348 182.846313,555.906555 
	C181.008682,554.322754 178.824005,550.604126 179.517334,549.215332 
	C180.560043,547.126770 183.916931,545.212769 186.426285,545.022522 
	C193.701218,544.470886 201.044144,544.796875 208.360291,544.813782 
	C213.846176,544.826477 219.379791,544.491028 224.794220,545.134644 
	C226.962769,545.392395 229.833832,547.486633 230.586670,549.438660 
	C231.181122,550.979919 229.175018,553.669800 228.020828,555.675110 
	C227.486618,556.603271 226.297012,557.234497 225.291336,557.798584 
	C213.625122,564.342041 212.413879,574.909546 214.063766,586.892090 
	C235.727982,586.892090 257.327759,587.043274 278.921051,586.737000 
	C282.352966,586.688354 285.755737,584.582703 289.801483,583.267151 
	C290.639313,582.626892 291.477142,581.986633 291.993103,581.021545 
	C291.993103,581.021545 292.321167,581.338745 292.787781,581.223755 
	C293.094757,581.074280 293.298035,580.836243 293.428528,580.417114 
M873.044983,519.332825 
	C872.996948,518.896912 872.948914,518.460999 873.082947,517.100037 
	C873.019348,505.064056 872.955750,493.028046 872.684387,480.129395 
	C865.789917,480.129395 858.895508,480.129395 852.052307,480.129395 
	C852.052307,507.963867 852.052307,535.476135 852.354065,563.810730 
	C855.800781,563.872559 859.253601,564.089478 862.692383,563.952454 
	C866.111694,563.816101 869.516724,563.324036 873.087402,562.502991 
	C873.043701,562.338501 873.000000,562.174072 873.144287,561.087402 
	C873.063843,547.384644 872.983337,533.681824 873.044983,519.332825 
M915.083984,442.956909 
	C908.810059,442.956909 902.536072,442.956909 896.152588,442.956909 
	C896.152588,483.500000 896.152588,523.543030 896.152588,564.004761 
	C900.172852,564.004761 903.968323,564.137878 907.749756,563.964600 
	C911.055237,563.813049 914.344971,563.316895 917.818726,562.054443 
	C917.825745,550.897888 917.837463,539.741272 917.838745,528.584717 
	C917.841980,501.442596 917.866638,474.300354 917.762878,447.158630 
	C917.757751,445.810059 916.620117,444.465851 915.083984,442.956909 
M360.745941,471.532684 
	C370.479919,471.571991 380.213898,471.611298 389.920227,472.505951 
	C389.920227,502.729187 389.920227,532.952454 389.920227,563.186279 
	C397.664398,563.186279 404.740753,563.186279 411.987030,563.186279 
	C411.987030,532.565125 411.987030,502.257111 412.889862,471.664764 
	C422.578247,471.536774 432.266663,471.408783 442.720032,471.132416 
	C442.720032,464.215668 442.720032,457.298950 442.720032,450.348816 
	C414.787476,450.348816 387.096893,450.348816 358.639282,450.348816 
	C359.080597,457.575470 359.496979,464.393585 360.745941,471.532684 
M554.922668,530.162720 
	C571.940918,530.081482 588.959167,530.000305 606.741516,529.631958 
	C607.027039,525.819824 607.592346,522.004150 607.544739,518.196167 
	C607.411133,507.489960 605.549255,497.188995 597.676575,489.191132 
	C586.884216,478.227142 573.694519,475.992310 559.493469,480.500000 
	C544.296692,485.323792 534.590759,495.810883 532.151062,511.730499 
	C531.059021,518.856567 531.018433,526.420715 532.095093,533.545166 
	C534.408997,548.856995 543.073303,559.305725 558.522278,563.207458 
	C573.422424,566.970642 588.136047,565.123352 602.871460,561.658936 
	C601.890076,555.965027 600.971008,550.632751 600.056213,545.325317 
	C594.160278,546.126404 588.601868,547.440186 583.032227,547.489746 
	C576.791931,547.545410 570.335754,547.238953 564.348328,545.664490 
	C557.143555,543.769958 552.476746,535.662109 554.922668,530.162720 
M515.701233,529.580139 
	C515.980408,525.264832 516.509827,520.948669 516.494995,516.634338 
	C516.434143,498.901215 507.671021,485.478546 493.230408,480.681763 
	C476.361633,475.078430 458.477325,480.020813 448.295166,493.511078 
	C439.083313,505.715851 438.593658,519.812561 440.979065,534.092773 
	C443.412109,548.658142 451.863373,558.576904 466.188538,562.752747 
	C481.499359,567.215820 496.733215,565.294250 511.904419,561.604065 
	C510.992249,555.882385 510.142334,550.551147 509.478271,546.385803 
	C498.687500,546.669495 488.401398,547.708618 478.240723,546.985352 
	C468.566833,546.296753 463.550934,540.166382 462.991119,530.184387 
	C480.317719,530.087891 497.644287,529.991394 515.701233,529.580139 
M718.405945,494.621735 
	C718.636475,504.738800 718.866943,514.855896 718.946045,525.903015 
	C718.946045,538.508301 718.946045,551.113647 718.946045,563.710083 
	C727.177917,563.710083 734.089172,563.710083 741.276184,563.710083 
	C739.580505,525.726196 737.898071,488.036713 736.202087,450.044983 
	C732.227112,450.044983 728.405273,450.253052 724.616638,449.987396 
	C720.709167,449.713440 718.654785,451.500946 716.883240,454.807800 
	C707.148376,472.979706 697.222656,491.049438 687.352600,509.148865 
	C686.267151,511.139252 685.118713,513.095337 683.541199,515.874756 
	C682.369385,513.698547 681.627380,512.281616 680.850586,510.883972 
	C670.189087,491.702911 659.554810,472.506470 648.790283,453.383362 
	C648.018311,452.011993 646.352478,450.359131 644.987610,450.248230 
	C640.244446,449.862732 635.450684,450.099335 630.554138,450.099335 
	C628.933105,488.304413 627.334595,525.978027 625.729492,563.807556 
	C633.120178,563.807556 640.056396,563.807556 647.599121,563.807556 
	C648.120056,540.312439 648.637390,516.979553 649.171326,492.898773 
	C658.017273,508.008820 666.437927,522.448242 674.918457,536.852417 
	C678.598145,543.102356 689.127808,543.073364 692.703857,536.865479 
	C700.505981,523.321228 708.288635,509.765747 716.148376,496.255157 
	C716.733398,495.249542 717.871155,494.565399 718.405945,494.621735 
M121.290504,425.986664 
	C114.232361,427.537231 109.583572,431.881622 108.302063,438.877289 
	C106.975784,446.117310 110.940224,451.282471 116.635582,455.234192 
	C142.089645,472.895355 167.551880,490.544769 193.024506,508.179108 
	C200.406464,513.289551 207.318207,513.356018 214.835876,508.264221 
	C226.144684,500.604736 237.402405,492.869293 248.647720,485.116638 
	C264.417816,474.244598 280.162781,463.336029 295.905182,452.423859 
	C300.841766,449.001953 303.380646,444.434052 302.233948,438.297302 
	C301.080811,432.125763 297.252899,428.172455 291.378967,426.457306 
	C289.069550,425.782959 286.451233,426.166534 283.047577,425.938721 
	C241.834015,425.894714 200.620468,425.826141 159.406906,425.821564 
	C146.951080,425.820190 134.495224,425.996338 121.290504,425.986664 
M803.949585,561.500488 
	C805.802368,560.337524 807.655212,559.174561 809.758057,557.854675 
	C809.909119,560.280151 810.018433,562.034241 810.119263,563.653137 
	C817.299133,563.653137 824.026245,563.653137 830.902039,563.653137 
	C830.902039,545.984131 831.299438,528.669312 830.779297,511.382141 
	C830.344727,496.937775 824.167847,485.474579 809.669434,480.641815 
	C794.471313,475.575806 779.899353,479.201965 765.494507,484.916748 
	C766.005005,490.662811 766.473145,495.931641 766.968872,501.511475 
	C775.396606,497.347198 783.885254,495.511902 792.858948,495.989777 
	C805.136047,496.643585 810.305176,502.690582 809.048462,514.955872 
	C800.418762,514.955872 791.784241,514.685364 783.172974,515.017395 
	C769.233521,515.554993 760.077637,524.288879 759.063049,537.496643 
	C757.934875,552.183289 765.259094,562.051270 779.509094,564.781250 
	C787.711304,566.352600 795.739868,565.844116 803.949585,561.500488 
M849.720520,458.559753 
	C852.783875,464.141113 857.950134,465.565125 863.713501,465.193634 
	C868.884216,464.860382 872.873596,462.312042 874.957092,457.364990 
	C877.255981,451.906677 875.660767,445.665588 871.150635,442.058167 
	C866.164612,438.070129 859.252014,437.894165 853.980530,441.621124 
	C848.660034,445.382721 847.008667,451.116211 849.720520,458.559753 
z"/>
<path fill="#1A5F58" opacity="1.000000" stroke="none" 
	d="
M159.585297,507.748718 
	C159.585297,507.748718 159.854202,507.776611 159.989273,508.231903 
	C160.867874,508.980713 161.611420,509.274200 162.354965,509.567688 
	C162.231110,509.687622 162.107239,509.807556 162.189713,510.119659 
	C163.382767,510.721313 164.369492,511.130829 165.356216,511.540375 
	C165.356216,511.540375 165.032043,511.857819 165.224548,512.092102 
	C166.464874,512.806091 167.512711,513.285767 168.560532,513.765503 
	C168.560532,513.765503 168.840012,513.792542 168.980286,514.245850 
	C169.854675,515.010986 170.588791,515.322815 171.322906,515.634705 
	C171.322906,515.634705 171.026016,515.979126 171.203293,516.158691 
	C172.363144,516.762817 173.345718,517.187256 174.328293,517.611755 
	C174.220291,517.741150 174.112289,517.870544 174.191010,518.168884 
	C175.960464,519.191101 177.543182,520.044434 179.125885,520.897766 
	C179.125885,520.897766 179.035645,520.986267 179.095169,521.286926 
	C180.542007,522.272827 181.929306,522.958069 183.316605,523.643372 
	C183.316605,523.643372 183.043228,523.964722 183.218613,524.165039 
	C184.429947,524.840881 185.465881,525.316528 186.501816,525.792114 
	C186.942795,526.000916 187.383789,526.209778 187.983154,526.992859 
	C189.111237,528.033325 190.080933,528.499512 191.050629,528.965637 
	C191.050629,528.965637 191.010147,529.005432 191.082031,529.347778 
	C194.457199,532.590149 198.128052,532.607910 201.996948,531.072815 
	C203.070328,531.025452 204.143707,530.978088 205.910828,531.261353 
	C209.740631,531.110779 212.876709,530.629578 216.012787,530.148376 
	C219.208603,528.465942 222.592957,527.063293 225.570572,525.057007 
	C250.190414,508.468262 274.734924,491.767670 299.813904,475.395508 
	C300.561890,477.647736 300.997498,479.604828 301.003387,481.563232 
	C301.056976,499.391052 301.324738,517.225220 300.943024,535.045044 
	C300.647491,548.842529 303.481049,562.983826 297.277496,576.275208 
	C297.277496,576.275208 297.061401,576.071838 296.910339,576.222046 
	C296.673920,576.708008 296.588531,577.043762 296.503174,577.379517 
	C296.503174,577.379517 296.413971,577.390015 296.138855,577.415283 
	C295.801208,577.749390 295.738708,578.058289 295.676208,578.367126 
	C295.676208,578.367126 295.557861,578.540527 295.230103,578.523376 
	C294.849945,578.784973 294.797516,579.063782 294.745087,579.342529 
	C294.745087,579.342529 294.611969,579.589539 294.240356,579.560303 
	C293.753632,579.818787 293.638489,580.106506 293.523376,580.394226 
	C293.523376,580.394226 293.428528,580.417114 293.133301,580.425842 
	C292.665771,580.735962 292.493500,581.037354 292.321167,581.338745 
	C292.321167,581.338745 291.993103,581.021545 291.791504,581.116333 
	C290.783936,581.950134 289.977966,582.689087 289.171997,583.428101 
	C285.755737,584.582703 282.352966,586.688354 278.921051,586.737000 
	C257.327759,587.043274 235.727982,586.892090 214.063766,586.892090 
	C212.413879,574.909546 213.625122,564.342041 225.291336,557.798584 
	C226.297012,557.234497 227.486618,556.603271 228.020828,555.675110 
	C229.175018,553.669800 231.181122,550.979919 230.586670,549.438660 
	C229.833832,547.486633 226.962769,545.392395 224.794220,545.134644 
	C219.379791,544.491028 213.846176,544.826477 208.360291,544.813782 
	C201.044144,544.796875 193.701218,544.470886 186.426285,545.022522 
	C183.916931,545.212769 180.560043,547.126770 179.517334,549.215332 
	C178.824005,550.604126 181.008682,554.322754 182.846313,555.906555 
	C187.473312,559.894348 193.097672,562.835632 194.689468,569.956848 
	C194.283447,574.252991 194.033234,577.884155 194.064209,581.512878 
	C194.085770,584.036865 193.197128,585.192871 190.585495,585.035034 
	C166.886963,583.602966 142.954941,588.123047 119.430061,582.238220 
	C119.004669,582.021606 118.579277,581.805054 118.023102,581.019775 
	C116.108482,578.809387 114.324646,577.167542 112.540802,575.525757 
	C112.540810,575.525757 112.526001,575.423340 112.609009,575.022034 
	C111.784660,570.636169 110.126266,566.658142 110.091331,562.665955 
	C109.857407,535.933777 109.969177,509.198639 109.968788,482.464478 
	C109.968765,480.850342 109.968788,479.236206 109.968788,477.647736 
	C111.826187,477.540863 113.107513,477.467133 114.388840,477.393372 
	C114.388840,477.393372 114.437157,477.491364 114.442017,477.865601 
	C115.423317,478.651398 116.399773,479.062988 117.376221,479.474579 
	C117.376221,479.474579 117.304268,479.611450 117.368439,479.956024 
	C118.482254,480.784088 119.531898,481.267578 120.581543,481.751099 
	C120.581551,481.751068 120.850548,481.774170 121.002579,482.245972 
	C121.968529,483.059448 122.782455,483.401123 123.596382,483.742798 
	C123.596382,483.742798 123.858879,483.768005 123.993500,484.222778 
	C124.875160,484.958588 125.622192,485.239685 126.369225,485.520782 
	C126.369225,485.520782 126.147224,485.777771 126.276382,486.034790 
	C127.387344,486.713013 128.369141,487.134247 129.350952,487.555450 
	C129.350952,487.555450 129.030914,487.877594 129.216217,488.094666 
	C130.390808,488.707214 131.380096,489.102692 132.369370,489.498169 
	C132.369370,489.498169 132.228333,489.683624 132.317627,489.980713 
	C133.618332,490.842590 134.829773,491.407379 136.041199,491.972137 
	C136.041199,491.972137 136.008286,492.005157 136.071625,492.329712 
	C136.881088,492.941956 137.627182,493.229614 138.373291,493.517273 
	C138.373291,493.517273 138.141373,493.774902 138.273895,494.033600 
	C139.393387,494.695618 140.380325,495.098938 141.367279,495.502258 
	C141.367279,495.502258 141.241699,495.673859 141.325195,495.981628 
	C142.392609,496.700287 143.376511,497.111145 144.360413,497.521973 
	C144.360413,497.521973 144.171402,497.751099 144.289078,498.023468 
	C145.388092,498.715302 146.369431,499.134766 147.350769,499.554260 
	C147.350769,499.554230 147.034943,499.899750 147.215668,500.103088 
	C148.381424,500.723145 149.366455,501.139862 150.351501,501.556580 
	C150.351501,501.556580 150.017441,501.893768 150.205765,502.100616 
	C151.378036,502.729126 152.362000,503.150818 153.345947,503.572479 
	C153.345947,503.572479 152.984360,503.915314 153.189545,504.115997 
	C154.381653,504.724762 155.368576,505.132843 156.355499,505.540894 
	C156.355499,505.540894 156.031448,505.852325 156.225525,506.091339 
	C157.474823,506.803162 158.530060,507.275940 159.585297,507.748718 
z"/>
<path fill="#63BA4E" opacity="1.000000" stroke="none" 
	d="
M283.973572,426.068359 
	C286.451233,426.166534 289.069550,425.782959 291.378967,426.457306 
	C297.252899,428.172455 301.080811,432.125763 302.233948,438.297302 
	C303.380646,444.434052 300.841766,449.001953 295.905182,452.423859 
	C280.162781,463.336029 264.417816,474.244598 248.647720,485.116638 
	C237.402405,492.869293 226.144684,500.604736 214.835876,508.264221 
	C207.318207,513.356018 200.406464,513.289551 193.024506,508.179108 
	C167.551880,490.544769 142.089645,472.895355 116.635582,455.234192 
	C110.940224,451.282471 106.975784,446.117310 108.302063,438.877289 
	C109.583572,431.881622 114.232361,427.537231 121.966476,426.320618 
	C123.623596,426.768982 124.604721,426.983337 125.585915,426.983612 
	C176.978683,426.999359 228.371445,427.004272 279.764191,426.957550 
	C281.167572,426.956299 282.570465,426.377716 283.973572,426.068359 
z"/>
<path fill="#1B5F59" opacity="1.000000" stroke="none" 
	d="
M718.751892,493.731812 
	C717.871155,494.565399 716.733398,495.249542 716.148376,496.255157 
	C708.288635,509.765747 700.505981,523.321228 692.703857,536.865479 
	C689.127808,543.073364 678.598145,543.102356 674.918457,536.852417 
	C666.437927,522.448242 658.017273,508.008820 649.171326,492.898773 
	C648.637390,516.979553 648.120056,540.312439 647.599121,563.807556 
	C640.056396,563.807556 633.120178,563.807556 625.729492,563.807556 
	C627.334595,525.978027 628.933105,488.304413 630.554138,450.099335 
	C635.450684,450.099335 640.244446,449.862732 644.987610,450.248230 
	C646.352478,450.359131 648.018311,452.011993 648.790283,453.383362 
	C659.554810,472.506470 670.189087,491.702911 680.850586,510.883972 
	C681.627380,512.281616 682.369385,513.698547 683.541199,515.874756 
	C685.118713,513.095337 686.267151,511.139252 687.352600,509.148865 
	C697.222656,491.049438 707.148376,472.979706 716.883240,454.807800 
	C718.654785,451.500946 720.709167,449.713440 724.616638,449.987396 
	C728.405273,450.253052 732.227112,450.044983 736.202087,450.044983 
	C737.898071,488.036713 739.580505,525.726196 741.276184,563.710083 
	C734.089172,563.710083 727.177917,563.710083 718.946045,563.710083 
	C718.946045,551.113647 718.946045,538.508301 719.302612,525.133972 
	C719.782776,514.452454 719.917542,504.540009 719.976013,494.627136 
	C719.977722,494.331116 719.177979,494.030365 718.751892,493.731812 
z"/>
<path fill="#1B5F59" opacity="1.000000" stroke="none" 
	d="
M462.064880,530.257568 
	C463.550934,540.166382 468.566833,546.296753 478.240723,546.985352 
	C488.401398,547.708618 498.687500,546.669495 509.478271,546.385803 
	C510.142334,550.551147 510.992249,555.882385 511.904419,561.604065 
	C496.733215,565.294250 481.499359,567.215820 466.188538,562.752747 
	C451.863373,558.576904 443.412109,548.658142 440.979065,534.092773 
	C438.593658,519.812561 439.083313,505.715851 448.295166,493.511078 
	C458.477325,480.020813 476.361633,475.078430 493.230408,480.681763 
	C507.671021,485.478546 516.434143,498.901215 516.494995,516.634338 
	C516.509827,520.948669 515.980408,525.264832 515.034668,529.453552 
	C497.764282,529.221497 481.160461,529.097778 464.556519,529.064148 
	C463.726776,529.062500 462.895447,529.841858 462.064880,530.257568 
M474.515381,515.043335 
	C481.299744,515.043335 488.084076,515.043335 494.869934,515.043335 
	C494.520142,501.555939 488.336548,494.970886 477.075562,495.601837 
	C467.475159,496.139679 461.816956,503.616638 462.627258,515.042664 
	C466.242310,515.042664 469.883392,515.042664 474.515381,515.043335 
z"/>
<path fill="#1B5F59" opacity="1.000000" stroke="none" 
	d="
M553.998474,529.992554 
	C552.476746,535.662109 557.143555,543.769958 564.348328,545.664490 
	C570.335754,547.238953 576.791931,547.545410 583.032227,547.489746 
	C588.601868,547.440186 594.160278,546.126404 600.056213,545.325317 
	C600.971008,550.632751 601.890076,555.965027 602.871460,561.658936 
	C588.136047,565.123352 573.422424,566.970642 558.522278,563.207458 
	C543.073303,559.305725 534.408997,548.856995 532.095093,533.545166 
	C531.018433,526.420715 531.059021,518.856567 532.151062,511.730499 
	C534.590759,495.810883 544.296692,485.323792 559.493469,480.500000 
	C573.694519,475.992310 586.884216,478.227142 597.676575,489.191132 
	C605.549255,497.188995 607.411133,507.489960 607.544739,518.196167 
	C607.592346,522.004150 607.027039,525.819824 606.059448,529.488892 
	C588.808777,529.247192 572.240051,529.139221 555.671265,529.089844 
	C555.114563,529.088196 554.556091,529.678284 553.998474,529.992554 
M578.674072,497.602112 
	C564.702698,491.155640 554.595032,498.025940 553.664612,514.749695 
	C564.372192,514.749695 575.069336,514.749695 585.990540,514.749695 
	C585.568237,508.207764 584.674438,502.234711 578.674072,497.602112 
z"/>
<path fill="#1C5F59" opacity="1.000000" stroke="none" 
	d="
M803.632202,561.703186 
	C795.739868,565.844116 787.711304,566.352600 779.509094,564.781250 
	C765.259094,562.051270 757.934875,552.183289 759.063049,537.496643 
	C760.077637,524.288879 769.233521,515.554993 783.172974,515.017395 
	C791.784241,514.685364 800.418762,514.955872 809.048462,514.955872 
	C810.305176,502.690582 805.136047,496.643585 792.858948,495.989777 
	C783.885254,495.511902 775.396606,497.347198 766.968872,501.511475 
	C766.473145,495.931641 766.005005,490.662811 765.494507,484.916748 
	C779.899353,479.201965 794.471313,475.575806 809.669434,480.641815 
	C824.167847,485.474579 830.344727,496.937775 830.779297,511.382141 
	C831.299438,528.669312 830.902039,545.984131 830.902039,563.653137 
	C824.026245,563.653137 817.299133,563.653137 810.119263,563.653137 
	C810.018433,562.034241 809.909119,560.280151 809.758057,557.854675 
	C807.655212,559.174561 805.802368,560.337524 803.632202,561.703186 
M781.372986,533.166565 
	C778.487793,540.879578 780.834106,547.579834 787.443115,549.527405 
	C793.542236,551.324768 799.683777,550.932983 805.279663,547.744385 
	C806.947388,546.794128 808.913513,544.794495 809.091858,543.101746 
	C809.604370,538.235596 809.272644,533.280518 809.272644,527.825623 
	C804.521179,527.825623 800.240906,527.726501 795.967163,527.851196 
	C790.820923,528.001343 785.559204,527.980957 781.372986,533.166565 
z"/>
<path fill="#1B5F59" opacity="1.000000" stroke="none" 
	d="
M411.987030,471.949127 
	C411.987030,502.257111 411.987030,532.565125 411.987030,563.186279 
	C404.740753,563.186279 397.664398,563.186279 389.920227,563.186279 
	C389.920227,532.952454 389.920227,502.729187 389.754456,471.668671 
	C379.913483,470.711365 370.238312,470.586456 360.562775,470.502502 
	C360.348389,470.500641 360.129944,470.964874 359.913391,471.211670 
	C359.496979,464.393585 359.080597,457.575470 358.639282,450.348816 
	C387.096893,450.348816 414.787476,450.348816 442.720032,450.348816 
	C442.720032,457.298950 442.720032,464.215668 442.167328,470.881470 
	C432.378143,470.435364 423.141968,470.201996 413.904510,470.128632 
	C413.270203,470.123596 412.626404,471.314453 411.987030,471.949127 
z"/>
<path fill="#1C5F59" opacity="1.000000" stroke="none" 
	d="
M917.641724,562.972900 
	C914.344971,563.316895 911.055237,563.813049 907.749756,563.964600 
	C903.968323,564.137878 900.172852,564.004761 896.152588,564.004761 
	C896.152588,523.543030 896.152588,483.500000 896.152588,442.956909 
	C902.536072,442.956909 908.810059,442.956909 915.543335,443.499146 
	C916.002563,481.968689 915.981140,519.896118 916.072021,557.823181 
	C916.076172,559.541016 917.095276,561.256348 917.641724,562.972900 
z"/>
<path fill="#1A5F58" opacity="1.000000" stroke="none" 
	d="
M872.892212,480.992065 
	C872.955750,493.028046 873.019348,505.064056 872.781067,517.707520 
	C872.620422,518.869629 872.761658,519.424316 872.902954,519.979065 
	C872.983337,533.681824 873.063843,547.384644 872.887451,561.633545 
	C872.565063,562.281982 872.421265,562.441223 872.447205,562.476929 
	C872.583801,562.664551 872.763367,562.820862 872.928040,562.988037 
	C869.516724,563.324036 866.111694,563.816101 862.692383,563.952454 
	C859.253601,564.089478 855.800781,563.872559 852.493774,563.101685 
	C852.755737,560.580139 852.982300,558.767639 852.984192,556.954956 
	C853.009338,533.317261 853.047058,509.679352 852.952759,486.042053 
	C852.939575,482.741028 853.229370,480.647003 857.416504,480.921936 
	C862.554504,481.259277 867.731812,480.995789 872.892212,480.992065 
z"/>
<path fill="#1C5F59" opacity="1.000000" stroke="none" 
	d="
M849.502686,458.241882 
	C847.008667,451.116211 848.660034,445.382721 853.980530,441.621124 
	C859.252014,437.894165 866.164612,438.070129 871.150635,442.058167 
	C875.660767,445.665588 877.255981,451.906677 874.957092,457.364990 
	C872.873596,462.312042 868.884216,464.860382 863.713501,465.193634 
	C857.950134,465.565125 852.783875,464.141113 849.502686,458.241882 
z"/>
<path fill="#0E4D47" opacity="1.000000" stroke="none" 
	d="
M917.730225,562.513672 
	C917.095276,561.256348 916.076172,559.541016 916.072021,557.823181 
	C915.981140,519.896118 916.002563,481.968689 916.006226,443.580505 
	C916.620117,444.465851 917.757751,445.810059 917.762878,447.158630 
	C917.866638,474.300354 917.841980,501.442596 917.838745,528.584717 
	C917.837463,539.741272 917.825745,550.897888 917.730225,562.513672 
z"/>
<path fill="#2F6862" opacity="1.000000" stroke="none" 
	d="
M114.156479,477.148438 
	C113.107513,477.467133 111.826187,477.540863 109.968788,477.647736 
	C109.968788,479.236206 109.968765,480.850342 109.968788,482.464478 
	C109.969177,509.198639 109.857407,535.933777 110.091331,562.665955 
	C110.126266,566.658142 111.784660,570.636169 112.561676,575.001099 
	C110.999306,571.382385 108.373421,567.397461 108.325844,563.382019 
	C107.973869,533.679871 108.135269,503.971710 108.135269,473.214661 
	C110.490807,474.715698 112.207466,475.809601 114.156479,477.148438 
z"/>
<path fill="#2F6862" opacity="1.000000" stroke="none" 
	d="
M297.568604,576.103455 
	C303.481049,562.983826 300.647491,548.842529 300.943024,535.045044 
	C301.324738,517.225220 301.056976,499.391052 301.003387,481.563232 
	C300.997498,479.604828 300.561890,477.647736 300.148621,475.303955 
	C300.546814,474.393005 301.122009,473.868134 302.229279,472.857788 
	C302.429901,474.584412 302.657196,475.630463 302.657623,476.676575 
	C302.668518,504.284485 302.911865,531.896851 302.430908,559.496521 
	C302.335022,564.999756 299.455627,570.454590 297.568604,576.103455 
z"/>
<path fill="#2F6862" opacity="1.000000" stroke="none" 
	d="
M119.646873,582.525818 
	C142.954941,588.123047 166.886963,583.602966 190.585495,585.035034 
	C193.197128,585.192871 194.085770,584.036865 194.064209,581.512878 
	C194.033234,577.884155 194.283447,574.252991 194.691193,570.316650 
	C195.435333,575.406616 195.901932,580.802734 196.432968,586.944153 
	C193.888275,586.944153 192.133514,586.944031 190.378754,586.944153 
	C171.919006,586.945618 153.451721,587.237915 135.004456,586.758911 
	C129.926788,586.627014 124.908966,584.191772 119.646873,582.525818 
z"/>
<path fill="#4EAC37" opacity="1.000000" stroke="none" 
	d="
M283.510559,426.003540 
	C282.570465,426.377716 281.167572,426.956299 279.764191,426.957550 
	C228.371445,427.004272 176.978683,426.999359 125.585915,426.983612 
	C124.604721,426.983337 123.623596,426.768982 122.340912,426.372864 
	C134.495224,425.996338 146.951080,425.820190 159.406906,425.821564 
	C200.620468,425.826141 241.834015,425.894714 283.510559,426.003540 
z"/>
<path fill="#0E4D47" opacity="1.000000" stroke="none" 
	d="
M872.788269,480.560730 
	C867.731812,480.995789 862.554504,481.259277 857.416504,480.921936 
	C853.229370,480.647003 852.939575,482.741028 852.952759,486.042053 
	C853.047058,509.679352 853.009338,533.317261 852.984192,556.954956 
	C852.982300,558.767639 852.755737,560.580139 852.342896,562.690552 
	C852.052307,535.476135 852.052307,507.963867 852.052307,480.129395 
	C858.895508,480.129395 865.789917,480.129395 872.788269,480.560730 
z"/>
<path fill="#0E4D47" opacity="1.000000" stroke="none" 
	d="
M412.438446,471.806946 
	C412.626404,471.314453 413.270203,470.123596 413.904510,470.128632 
	C423.141968,470.201996 432.378143,470.435364 441.784851,470.955627 
	C432.266663,471.408783 422.578247,471.536774 412.438446,471.806946 
z"/>
<path fill="#0E4D47" opacity="1.000000" stroke="none" 
	d="
M462.528015,530.220947 
	C462.895447,529.841858 463.726776,529.062500 464.556519,529.064148 
	C481.160461,529.097778 497.764282,529.221497 514.669495,529.610962 
	C497.644287,529.991394 480.317719,530.087891 462.528015,530.220947 
z"/>
<path fill="#0E4D47" opacity="1.000000" stroke="none" 
	d="
M554.460571,530.077637 
	C554.556091,529.678284 555.114563,529.088196 555.671265,529.089844 
	C572.240051,529.139221 588.808777,529.247192 605.677429,529.632507 
	C588.959167,530.000305 571.940918,530.081482 554.460571,530.077637 
z"/>
<path fill="#0E4D47" opacity="1.000000" stroke="none" 
	d="
M360.329651,471.372192 
	C360.129944,470.964874 360.348389,470.500641 360.562775,470.502502 
	C370.238312,470.586456 379.913483,470.711365 389.768311,471.240967 
	C380.213898,471.611298 370.479919,471.571991 360.329651,471.372192 
z"/>
<path fill="#0E4D47" opacity="1.000000" stroke="none" 
	d="
M718.578918,494.176758 
	C719.177979,494.030365 719.977722,494.331116 719.976013,494.627136 
	C719.917542,504.540009 719.782776,514.452454 719.378296,524.668945 
	C718.866943,514.855896 718.636475,504.738800 718.578918,494.176758 
z"/>
<path fill="#2F6862" opacity="1.000000" stroke="none" 
	d="
M215.571960,530.112061 
	C212.876709,530.629578 209.740631,531.110779 206.310211,531.321167 
	C209.054306,530.725464 212.092728,530.400635 215.571960,530.112061 
z"/>
<path fill="#2F6862" opacity="1.000000" stroke="none" 
	d="
M201.612503,530.981323 
	C198.128052,532.607910 194.457199,532.590149 191.091339,529.321167 
	C194.428543,529.598022 197.828308,530.243896 201.612503,530.981323 
z"/>
<path fill="#2F6862" opacity="1.000000" stroke="none" 
	d="
M112.664169,575.827393 
	C114.324646,577.167542 116.108482,578.809387 117.912796,580.804077 
	C116.218018,579.481018 114.502777,577.804993 112.664169,575.827393 
z"/>
<path fill="#2F6862" opacity="1.000000" stroke="none" 
	d="
M178.952911,520.618896 
	C177.543182,520.044434 175.960464,519.191101 174.352234,517.974915 
	C175.811111,518.521362 177.295502,519.430664 178.952911,520.618896 
z"/>
<path fill="#2F6862" opacity="1.000000" stroke="none" 
	d="
M183.139069,523.378418 
	C181.929306,522.958069 180.542007,522.272827 179.121399,521.229431 
	C180.379272,521.618652 181.670410,522.366089 183.139069,523.378418 
z"/>
<path fill="#2F6862" opacity="1.000000" stroke="none" 
	d="
M135.861755,491.709839 
	C134.829773,491.407379 133.618332,490.842590 132.412933,489.913757 
	C133.506760,490.182312 134.594543,490.814941 135.861755,491.709839 
z"/>
<path fill="#2F6862" opacity="1.000000" stroke="none" 
	d="
M289.486755,583.347656 
	C289.977966,582.689087 290.783936,581.950134 291.952454,581.278748 
	C291.477142,581.986633 290.639313,582.626892 289.486755,583.347656 
z"/>
<path fill="#2F6862" opacity="1.000000" stroke="none" 
	d="
M190.883514,528.700562 
	C190.080933,528.499512 189.111237,528.033325 188.101105,527.211243 
	C188.945923,527.382080 189.831161,527.908813 190.883514,528.700562 
z"/>
<path fill="#2F6862" opacity="1.000000" stroke="none" 
	d="
M186.317627,525.517944 
	C185.465881,525.316528 184.429947,524.840881 183.344086,523.995483 
	C184.240601,524.165039 185.187027,524.704407 186.317627,525.517944 
z"/>
<path fill="#2F6862" opacity="1.000000" stroke="none" 
	d="
M174.157562,517.354858 
	C173.345718,517.187256 172.363144,516.762817 171.343384,515.979675 
	C172.199738,516.113342 173.093292,516.605713 174.157562,517.354858 
z"/>
<path fill="#2F6862" opacity="1.000000" stroke="none" 
	d="
M117.194550,479.247131 
	C116.399773,479.062988 115.423317,478.651398 114.496292,477.871826 
	C115.368103,478.009125 116.190483,478.514374 117.194550,479.247131 
z"/>
<path fill="#2F6862" opacity="1.000000" stroke="none" 
	d="
M165.176636,511.296082 
	C164.369492,511.130829 163.382767,510.721313 162.381668,509.946899 
	C163.243866,510.071899 164.120453,510.561829 165.176636,511.296082 
z"/>
<path fill="#2F6862" opacity="1.000000" stroke="none" 
	d="
M120.399567,481.477783 
	C119.531898,481.267578 118.482254,480.784088 117.435333,479.917236 
	C118.364571,480.090759 119.291084,480.647583 120.399567,481.477783 
z"/>
<path fill="#2F6862" opacity="1.000000" stroke="none" 
	d="
M159.400360,507.473999 
	C158.530060,507.275940 157.474823,506.803162 156.399506,505.949127 
	C157.324738,506.111694 158.270081,506.655487 159.400360,507.473999 
z"/>
<path fill="#2F6862" opacity="1.000000" stroke="none" 
	d="
M156.173492,505.298218 
	C155.368576,505.132843 154.381653,504.724762 153.377304,503.952698 
	C154.237091,504.077637 155.114288,504.566559 156.173492,505.298218 
z"/>
<path fill="#2F6862" opacity="1.000000" stroke="none" 
	d="
M153.176208,503.319458 
	C152.362000,503.150818 151.378036,502.729126 150.383087,501.942963 
	C151.250229,502.074463 152.128342,502.570465 153.176208,503.319458 
z"/>
<path fill="#2F6862" opacity="1.000000" stroke="none" 
	d="
M150.174988,501.309204 
	C149.366455,501.139862 148.381424,500.723145 147.384964,499.941467 
	C148.248520,500.071655 149.123489,500.566742 150.174988,501.309204 
z"/>
<path fill="#2F6862" opacity="1.000000" stroke="none" 
	d="
M147.172485,499.311340 
	C146.369431,499.134766 145.388092,498.715302 144.404892,497.930542 
	C145.266754,498.066284 146.130478,498.567352 147.172485,499.311340 
z"/>
<path fill="#2F6862" opacity="1.000000" stroke="none" 
	d="
M144.177856,497.284485 
	C143.376511,497.111145 142.392609,496.700287 141.413696,495.922699 
	C142.277542,496.052979 143.136429,496.549957 144.177856,497.284485 
z"/>
<path fill="#2F6862" opacity="1.000000" stroke="none" 
	d="
M141.183167,495.265717 
	C140.380325,495.098938 139.393387,494.695618 138.408661,493.924622 
	C139.273605,494.047668 140.136337,494.538391 141.183167,495.265717 
z"/>
<path fill="#2F6862" opacity="1.000000" stroke="none" 
	d="
M168.376205,513.491272 
	C167.512711,513.285767 166.464874,512.806091 165.398560,511.946594 
	C166.317352,512.116882 167.254623,512.666992 168.376205,513.491272 
z"/>
<path fill="#2F6862" opacity="1.000000" stroke="none" 
	d="
M132.182678,489.261810 
	C131.380096,489.102692 130.390808,488.707214 129.387756,487.945953 
	C130.248001,488.061920 131.121994,488.543671 132.182678,489.261810 
z"/>
<path fill="#2F6862" opacity="1.000000" stroke="none" 
	d="
M129.180862,487.306030 
	C128.369141,487.134247 127.387344,486.713013 126.406754,485.925995 
	C127.275574,486.059021 128.143173,486.557831 129.180862,487.306030 
z"/>
<path fill="#2F6862" opacity="1.000000" stroke="none" 
	d="
M138.203461,493.281555 
	C137.627182,493.229614 136.881088,492.941956 136.078842,492.307983 
	C136.693008,492.323059 137.363327,492.684448 138.203461,493.281555 
z"/>
<path fill="#2F6862" opacity="1.000000" stroke="none" 
	d="
M123.417145,483.473083 
	C122.782455,483.401123 121.968529,483.059448 121.076233,482.359100 
	C121.744553,482.401398 122.491234,482.802368 123.417145,483.473083 
z"/>
<path fill="#2F6862" opacity="1.000000" stroke="none" 
	d="
M126.196571,485.286682 
	C125.622192,485.239685 124.875160,484.958588 124.063339,484.334595 
	C124.673683,484.345306 125.348801,484.698975 126.196571,485.286682 
z"/>
<path fill="#2F6862" opacity="1.000000" stroke="none" 
	d="
M162.196259,509.321533 
	C161.611420,509.274200 160.867874,508.980713 160.060577,508.346741 
	C160.677063,508.362640 161.357315,508.719025 162.196259,509.321533 
z"/>
<path fill="#2F6862" opacity="1.000000" stroke="none" 
	d="
M171.169998,515.384399 
	C170.588791,515.322815 169.854675,515.010986 169.057465,514.363159 
	C169.668594,514.396118 170.342850,514.765076 171.169998,515.384399 
z"/>
<path fill="#0E4D47" opacity="1.000000" stroke="none" 
	d="
M872.973999,519.655945 
	C872.761658,519.424316 872.620422,518.869629 872.690002,518.170044 
	C872.948914,518.460999 872.996948,518.896912 872.973999,519.655945 
z"/>
<path fill="#0E4D47" opacity="1.000000" stroke="none" 
	d="
M873.007690,562.745483 
	C872.763367,562.820862 872.583801,562.664551 872.447205,562.476929 
	C872.421265,562.441223 872.565063,562.281982 872.793457,562.094666 
	C873.000000,562.174072 873.043701,562.338501 873.007690,562.745483 
z"/>
<path fill="#2F6862" opacity="1.000000" stroke="none" 
	d="
M296.715729,577.255737 
	C296.588531,577.043762 296.673920,576.708008 297.032166,576.306763 
	C297.291351,576.585449 297.165771,576.882324 296.715729,577.255737 
z"/>
<path fill="#2F6862" opacity="1.000000" stroke="none" 
	d="
M295.853516,578.271240 
	C295.738708,578.058289 295.801208,577.749390 296.134399,577.459961 
	C296.374695,577.762146 296.249939,577.994141 295.853516,578.271240 
z"/>
<path fill="#2F6862" opacity="1.000000" stroke="none" 
	d="
M294.895020,579.276001 
	C294.797516,579.063782 294.849945,578.784973 295.145996,578.586182 
	C295.347046,578.893066 295.232147,579.074219 294.895020,579.276001 
z"/>
<path fill="#2F6862" opacity="1.000000" stroke="none" 
	d="
M293.705200,580.342468 
	C293.638489,580.106506 293.753632,579.818787 294.117004,579.627075 
	C294.279022,579.973999 294.119629,580.163208 293.705200,580.342468 
z"/>
<path fill="#2F6862" opacity="1.000000" stroke="none" 
	d="
M292.554504,581.281250 
	C292.493500,581.037354 292.665771,580.735962 293.117798,580.472107 
	C293.298035,580.836243 293.094757,581.074280 292.554504,581.281250 
z"/>
<path fill="#FBFCFC" opacity="1.000000" stroke="none" 
	d="
M474.019928,515.042969 
	C469.883392,515.042664 466.242310,515.042664 462.627258,515.042664 
	C461.816956,503.616638 467.475159,496.139679 477.075562,495.601837 
	C488.336548,494.970886 494.520142,501.555939 494.869934,515.043335 
	C488.084076,515.043335 481.299744,515.043335 474.019928,515.042969 
z"/>
<path fill="#FBFCFC" opacity="1.000000" stroke="none" 
	d="
M578.989136,497.811646 
	C584.674438,502.234711 585.568237,508.207764 585.990540,514.749695 
	C575.069336,514.749695 564.372192,514.749695 553.664612,514.749695 
	C554.595032,498.025940 564.702698,491.155640 578.989136,497.811646 
z"/>
<path fill="#FBFCFC" opacity="1.000000" stroke="none" 
	d="
M781.618896,532.861755 
	C785.559204,527.980957 790.820923,528.001343 795.967163,527.851196 
	C800.240906,527.726501 804.521179,527.825623 809.272644,527.825623 
	C809.272644,533.280518 809.604370,538.235596 809.091858,543.101746 
	C808.913513,544.794495 806.947388,546.794128 805.279663,547.744385 
	C799.683777,550.932983 793.542236,551.324768 787.443115,549.527405 
	C780.834106,547.579834 778.487793,540.879578 781.618896,532.861755 
z"/>
</svg>